<svg xmlns="http://www.w3.org/2000/svg" viewBox="0 0 48 48" id="kiss"><symbol id="New_Symbol_14" viewBox="-6.5 -6.5 13 13"><path fill="#ffd4c3" stroke="#504b46" stroke-linecap="round" stroke-linejoin="round" stroke-miterlimit="10" d="M0-6c2.2 0 4.1 1.5 4.7 3.5C6.3-2.5 6.4 0 5 0v1c0 2.8-2.2 5-5 5s-5-2.2-5-5V0c-1.4 0-1.3-2.5.2-2.5C-4.1-4.5-2.2-6 0-6z"></path><circle cx="-1.6" cy="-.1" r=".1" fill="#ffc258"></circle><path fill="#4f4b45" d="M-1.6.5c-.3 0-.6-.3-.6-.6s.2-.7.6-.7c.3 0 .6.3.6.7s-.3.6-.6.6z"></path><circle cx="1.6" cy="-.1" r=".1" fill="#ffc258"></circle><path fill="#4f4b45" d="M1.6.5C1.3.5 1 .2 1-.1s.3-.6.6-.6.6.3.6.6-.2.6-.6.6z"></path><circle cx="-3" cy="-1.5" r=".5" fill="#fabfa5"></circle><circle cx="3" cy="-1.5" r=".5" fill="#fabfa5"></circle><path fill="none" stroke="#504b46" stroke-linecap="round" stroke-linejoin="round" stroke-miterlimit="10" d="M-1.2-3c.8-.5 1.7-.5 2.5 0"></path></symbol><g id="Icons"><g id="XMLID_639_"><circle id="XMLID_7393_" cx="21.5" cy="21.3" r="20" fill="#ffe500"></circle><path id="XMLID_7390_" fill="#ebcb00" d="M21.5 1.3c-11 0-20 9-20 20s9 20 20 20 20-9 20-20-9-20-20-20zm0 37c-10.1 0-18.2-8.2-18.2-18.2C3.3 10 11.4 1.8 21.5 1.8S39.8 10 39.8 20.1c0 10-8.2 18.2-18.3 18.2z"></path><ellipse id="XMLID_7389_" cx="21.5" cy="5.3" fill="#fff48c" rx="6" ry="1.5"></ellipse><path id="XMLID_7388_" fill="#ebcb00" d="M39.4 30.3c-1.8 3.6-4.7 6.6-8.2 8.5l-1.1-2.6-.5-1.3c-.8-1.8-.7-3.9.2-5.9.8-1.7 2.2-3 3.9-3.3 1.8-.4 3.6.3 4.6 1.7.3.4.6.9.8 1.5l.3 1.4z"></path><ellipse id="XMLID_7387_" cx="21.5" cy="45.2" fill="#45413c" opacity=".15" rx="16" ry="1.5"></ellipse><circle id="XMLID_7386_" cx="21.5" cy="21.3" r="20" fill="none" stroke="#45413c" stroke-linecap="round" stroke-linejoin="round" stroke-miterlimit="10"></circle><g id="XMLID_7384_"><path id="XMLID_7385_" fill="none" stroke="#45413c" stroke-linecap="round" stroke-miterlimit="10" d="M21.5 27.6c.3-.2.6-.3 1-.3 1.1 0 2 .9 2 2s-.9 2-2 2c1.1 0 2 .9 2 2s-.9 2-2 2c-.4 0-.7-.1-1-.3"></path></g><g id="XMLID_7380_"><path id="XMLID_7383_" fill="#ff6242" d="M34.4 39.8l-3.4-8c-.6-1.4-.6-3.2.1-4.7.6-1.4 1.8-2.4 3.1-2.7 1.9-.4 3.7.6 4.3 2.6l.6 2.1 2-.9c1.9-.9 3.9-.2 4.9 1.5.7 1.2.7 2.8.1 4.1-.7 1.5-2 2.7-3.4 3.2l-8.3 2.8z"></path><path id="XMLID_7382_" fill="#ff866e" d="M32.5 28.2c1.9-.4 3.7.6 4.3 2.6l.6 2.1 2-.9c1.8-.8 3.8-.2 4.8 1.5.4.6.5 1.4.5 2.2.5-.5 1-1.1 1.3-1.8.6-1.4.6-2.9-.1-4.1-1-1.7-3-2.4-4.8-1.5l-2 .9-.5-2.2c-.6-1.9-2.4-3-4.3-2.6-1.4.3-2.5 1.3-3.1 2.7-.3.7-.5 1.4-.5 2.2.4-.5 1.1-.9 1.8-1.1z"></path><path id="XMLID_7381_" fill="none" stroke="#45413c" stroke-linecap="round" stroke-linejoin="round" stroke-miterlimit="10" d="M34.4 39.8l-3.4-8c-.6-1.4-.6-3.2.1-4.7.6-1.4 1.8-2.4 3.1-2.7 1.9-.4 3.7.6 4.3 2.6l.6 2.1 2-.9c1.9-.9 3.9-.2 4.9 1.5.7 1.2.7 2.8.1 4.1-.7 1.5-2 2.7-3.4 3.2l-8.3 2.8z"></path></g><ellipse id="XMLID_7379_" cx="9.5" cy="26.3" fill="#ffaa54" rx="2.5" ry="1.5"></ellipse><path id="XMLID_7378_" fill="none" stroke="#45413c" stroke-linecap="round" stroke-linejoin="round" stroke-miterlimit="10" d="M30 21.6c0-1 .8-1.8 1.8-1.8s1.8.8 1.8 1.8"></path><circle id="XMLID_7377_" cx="10.5" cy="20.3" r="1" fill="#45413c" stroke="#45413c" stroke-linecap="round" stroke-linejoin="round" stroke-miterlimit="10"></circle></g></g></svg>